<?xml version="1.0" encoding="UTF-8"?>
<svg version="1.1" viewBox="0 0 1748 1516" width="437" height="379" xmlns="http://www.w3.org/2000/svg">
<path transform="translate(0)" d="m0 0h1748v1516h-1748z" fill="#41403F"/>
<path transform="translate(1244,264)" d="m0 0h4l-1 4-360 360-5 1-3-5-16-32-9-19-10-19-24-48-8-15-11-23-11-21-9-19-4-7h-188l2 6 5 8 8 19 10 19 141 282-1 7-9 12-7 6-8 6-12 11-635 635h-2v2h-2v2l-8 7-15 16-33 33-5 4-5 6v-3-3l2-7 13-13 9-12 12-14 11-14 10-13 2-3h2l2-4 12-15 9-11 11-14 11-12 11-14 7-8 8-11 10-12 5-7h2l2-4 11-13 7-9 13-16 1-2h2l2-4 11-13 7-9 9-11 7-9 12-15 2-3h2l2-4 11-13 7-9 20-25 11-14 10-11 10-13 13-16 8-10 11-14 10-11 10-13 13-16 9-11 7-8 11-14 13-16 11-14 12-14 13-16 11-14 12-14 14-18 10-13 9-10 11-14 9-10 11-14 13-16 11-14 9-11 9-10 10-13 13-16 8-10 5-5-1-7-10-19-159-318-10-19-20-40-7-13v-5h401l22 1 6 8 14 27 21 42 10 19 10 18 9 16 6-1 14-9 11-6 27-15 23-13 17-10 14-8 17-10 22-12 14-8 16-9 12-7 16-9 14-8 23-13 42-24 27-16z" fill="#0036F1"/>
<path transform="translate(1712,28)" d="m0 0v3l-10 10-2 4h-3l-12 13 5-4 4-2-12 14-2 2-1-2-12 13-10 13-7 8-9 12-11 13-11 14-18 22-11 13-9 11-10 13-11 13-6 8-10 11-9 12-10 11-5 7 16-16v3l-14 14-1 3h-4l-12 14-6 8-12 14-9 12-10 11-3 5-9 10-16 20-8 9-3 5-9 10-4 5-3 5-9 10-7 8h1l9-9 2 1-11 11-2 3-4 1-9 10-6 9-12 13-6 7 7-6 10-10 2 1-16 16-1 3-5 1-7 8-5 7 13-13 2 1-13 13-2 4-2-2-11 12-6 9-12 13-8 11-9 10-5 7h2l-1 4v-2l-5 3-12 14-3 3-3 5-9 10-7 10-11 12-6 8 13-13 2 1-13 13-1 3-5 1-12 14-3 5-10 11-4 6-6 7-9 11-2 3 11-11 2 1-13 13-2 4v-2l-3 1-7 8-10 12-9 11-7 8 5-4 8-8 2 1-13 13-2 4v-2l-5 3-9 11-7 9-9 10-9 12-9 10-8 12-7 6-1 3 5-4 2 1-6 6-2 4 9 20 48 96 11 23 11 21 10 23 10 19 20 40 11 24 41 82 15 33 8 16 8 17 3 2 1-2-1 4-60 1h-358l-6-2 1-3 1 2 3 1v-2l-3-1-12-25-11-23-8-16-7-15-9-20-8-16-10-22-4-10 2 8-3-2-2-6-4 1-3 1v-2l-4 2-25 14-17 10-25 14-154 88-15 9-11 6-16 10-2 4-4 2-3-1 5-2 1-4 8-8 7-6 5-6h2l2-4 12-12 8-7 9-9 2-3h2l2-4 7-7h2l2-4 8-7 51-51 7-8 52-52h2v-2l25-25 8-7 7-8 8-7 39-39 7-8 26-26 3 3 17 34 11 23 8 17 11 24 50 100 2-1v4h191l1-2v4l3 1-4-12-8-17-10-19-11-24-8-16-8-17-10-19-11-23-8-16-10-21-24-48-8-17-8-18-24-48-10-21-2 4-1-4v-7l7-8 123-123v3l-127 127 5-4 117-117 8-7 569-569 7-6 7-8 8-8 7-8 8-7 11-9z" fill="#FDFDFD"/>
<path transform="translate(1726,8)" d="m0 0h2l-2 4-9 9-3 6-8 8-13 10-8 8-7 8-8 8-7 8-8 7-569 569-8 7-116 116v-3l127-127 1-2h2l2-4h2l2-4 8-7 9-9 7-8 4-4h2l2-4h2v-2l8-7 7-7 7-8 8-8h2v-2l8-7 7-7 7-8 8-8h2v-2l8-7 7-7 7-8 8-8h2v-2l8-7 7-7 7-8 4-4h2l2-4 8-7 9-9 7-8 4-4h2l2-4 8-7 9-9 7-8 4-4h2l2-4 8-7 9-9 7-8 4-4h2l2-4 8-7 7-7 1-2h2l2-4 12-12 8-7 7-7 1-2h2l2-4 12-12 8-7 9-9 7-8 4-4h2l2-4 8-7 9-9 7-8 10-10 8-7 12-13 14-14h2v-2l7-6 1-2h2l2-4 18-18h2v-2l7-6 7-8 16-16h2v-2l7-6 7-8 12-12h2l1-3 5-5h2l2-4 76-76 8-7 9-9 7-8z"/>
<path transform="translate(827,907)" d="m0 0 3 1 37 74 2 8 12 25 10 20 10 19 22 44 5 11v5l-3-4-54-108-11-25-11-23-21-42-7 6-22 22-2 3h-2l-2 4-44 44h-2l-2 4-8 8h-2l-1 3-8 7-14 14-3 4h-2v2l-8 7-51 51-7 8-48 48-7 6-5 5-7 8-19 19-8 7-12 12-8 9-8 7-3 5-5 3h-3l1-4 12-11 269-269h2l2-4h2l2-4z"/>
<path transform="translate(1082,800)" d="m0 0 4 4 57 114 5 12 6 10 9 17 4 9 4 13 11 21 5 6 2 8 6 11 5 7 3 6 3 10 54 108 4 11 8 16 3 5 4 10 9 18v2h-16v-1l12-1-13-28-8-16-16-34-40-80-11-25-6-10-8-18-6-10-11-23-8-18-17-33-11-23-40-80-7-16z"/>
<path transform="translate(961,780)" d="m0 0 3 4 12 25 16 32 14 30 10 21 8 16 8 17 9 17 11 23 24 48 8 17 8 16 12 26 10 19 9 20 1 7h-16v-1h13l-3-9-10-19-8-18-7-17-19-38-10-19-10-21-10-19-10-21-10-19-8-16-10-21-3-9-16-33-8-16-12-23-6-13z"/>
<path transform="translate(788,1067)" d="m0 0 1 2h-2v2l-5 4-16 8-15 9-19 10-6 5-16 8-20 12-14 7-9 6-19 10-6 5-16 8-20 12-14 7-9 6-19 10-9 6-17 9-10 7-8 4-2-1 11-8 15-9 11-6 23-13 56-32 23-13 17-10 18-10 19-11 21-12 46-26z"/>
<path transform="translate(1642,110)" d="m0 0 2 1-2 4-9 9-5 7-3 5-2 3h-2v2h-2v2l-5 5-2 3-1 4-15 14-4 6-1 4-7 6-7 8-3 7-6 5-7 8-2 6-10 9-9 10-1 5-10 9-9 9v-3l10-11 16-20 10-11 8-11 10-12 8-10 13-16 12-14 7-9 13-16 9-11z"/>
<path transform="translate(796,1066)" d="m0 0 2 2 6 15 11 25 8 16 10 21 7 15 14 29 11 22 2 5 2 1v2l-4-1-9-17-21-42-6-15-2-4-2-1-2-8-9-19-9-17-5-13-4-13z"/>
<path transform="translate(1326,498)" d="m0 0 2 1-1 4-10 9-8 9-2 6-8 7-6 7h-2l2-4 7-8 8-10 7-9z"/>
<path transform="translate(1679,65)" d="m0 0 1 3-7 8-8 8-2 7-8 7-8 8v-3l8-10 10-12 9-11z"/>
<path transform="translate(1145,719)" d="m0 0h3l-1 4-8 7-7 8-1 5-8 7-12 12 2-5 11-12 6-8 8-10z"/>
<path transform="translate(1270,566)" d="m0 0 2 3-12 12-3 4-2 6-10 9-9 9v-3l13-14 9-12 9-11z"/>
<path transform="translate(1518,262)" d="m0 0 2 3-13 13-3 5-2 5-8 7-7 7v-3l9-10 6-8 9-11z"/>
<path transform="translate(1110,762)" d="m0 0 2 1-1 4-8 7-6 7-2 6-9 8-4 1 4-6 4-4h2l2-4 7-10z"/>
<path transform="translate(1378,434)" d="m0 0 2 1-1 4-10 9-9 9-2-1 11-12 7-8z"/>
<path transform="translate(1289,543)" d="m0 0h3l-1 4-17 16-3 3 1-4 12-13z"/>
<path transform="translate(1414,390)" d="m0 0 2 1-1 4-17 16-3 2 2-4 11-12z"/>
<path transform="translate(1202,650)" d="m0 0 2 1-1 4-10 9-8 8v-3l10-11z"/>
<path transform="translate(1218,630)" d="m0 0 2 1-1 4-10 9-5 6-2-2 13-15z"/>
<path transform="translate(1466,326)" d="m0 0 2 3-21 21 2-5 13-14z"/>
<path transform="translate(1342,478)" d="m0 0 2 1-1 4-10 9-5 6-1-3 11-12z"/>
<path transform="translate(1393,415)" d="m0 0h3l-1 4-8 7-7 8-1-3 10-11z"/>
<path transform="translate(1430,370)" d="m0 0 2 1-2 4-15 15 1-4 13-15z"/>
<path transform="translate(1181,675)" d="m0 0h3l-1 4-10 9-7 6 2-4 11-12z"/>
<path transform="translate(1233,611)" d="m0 0 3 1-6 7-11 11 1-4 9-10z"/>
<path transform="translate(1162,698)" d="m0 0h1v5l-8 7-7 7v-3l9-10z"/>
<path transform="translate(1446,350)" d="m0 0h1v5l-8 7-7 8-1-3 11-12z"/>
<path transform="translate(1357,459)" d="m0 0 3 1-1 3-8 7-7 7v-3l10-11z"/>
<path transform="translate(1482,306)" d="m0 0 1 4-16 16 1-4 11-12z"/>
<path transform="translate(1699,43)" d="m0 0 1 3-5 5-10 9v-3l12-13z"/>
<path transform="translate(10,1500)" d="m0 0h2l-1 3-8 7-3 2 1-4z"/>
</svg>
